<svg height="30" width="56" xmlns="http://www.w3.org/2000/svg" class="apple-icloud-logo dark"><g fill-rule="nonzero"><path d="M1.396 18h2.308V7.891H1.396V18Zm1.16-11.783c.378 0 .7-.132.967-.397.266-.265.4-.583.4-.954 0-.377-.134-.697-.4-.96a1.327 1.327 0 0 0-.968-.394c-.372 0-.693.131-.962.394a1.29 1.29 0 0 0-.404.96c0 .37.134.689.404.954s.59.397.962.397ZM11.666 18.324c1.032 0 1.952-.188 2.76-.564a5.142 5.142 0 0 0 1.971-1.57c.507-.672.82-1.454.936-2.347l.004-.076H14.99l-.018.06a3.035 3.035 0 0 1-.628 1.29 3.037 3.037 0 0 1-1.139.842 3.821 3.821 0 0 1-1.537.296c-.763 0-1.422-.201-1.979-.603-.556-.402-.985-.972-1.286-1.712-.302-.74-.452-1.616-.452-2.627v-.018c0-1.015.15-1.891.452-2.629.3-.737.73-1.306 1.286-1.707.556-.4 1.213-.6 1.97-.6.568 0 1.08.107 1.535.324.455.217.837.52 1.146.912.308.39.52.85.634 1.379l.013.057h2.341l.002-.081a4.96 4.96 0 0 0-.926-2.415 5.317 5.317 0 0 0-1.994-1.649c-.816-.398-1.733-.597-2.75-.597-1.267 0-2.36.284-3.278.85-.919.568-1.627 1.375-2.126 2.422-.498 1.046-.747 2.292-.747 3.737v.018c0 1.441.249 2.685.747 3.732.498 1.047 1.208 1.855 2.13 2.423.922.568 2.015.853 3.28.853ZM19.122 18h2.308V3.996h-2.308zM27.983 18.202c1.01 0 1.879-.21 2.605-.632a4.213 4.213 0 0 0 1.677-1.809c.392-.784.588-1.72.588-2.81v-.018c0-1.087-.198-2.022-.593-2.805A4.24 4.24 0 0 0 30.58 8.32c-.727-.421-1.592-.632-2.597-.632-.998 0-1.861.211-2.59.633a4.251 4.251 0 0 0-1.686 1.809c-.395.783-.593 1.717-.593 2.802v.019c0 1.088.196 2.024.589 2.809a4.215 4.215 0 0 0 1.681 1.81c.729.42 1.595.631 2.6.631Zm0-1.87c-.53 0-.982-.133-1.356-.4-.373-.267-.659-.653-.856-1.156-.198-.504-.297-1.111-.297-1.822v-.018c0-.711.1-1.318.298-1.82.199-.502.485-.888.858-1.156.374-.268.824-.402 1.352-.402.53 0 .982.134 1.355.402.372.268.658.653.857 1.156.198.502.297 1.109.297 1.82v.018c0 .709-.098 1.315-.296 1.82-.197.503-.482.889-.854 1.157s-.825.402-1.357.402ZM37.808 18.202c.734 0 1.352-.155 1.856-.465a2.77 2.77 0 0 0 1.111-1.28h.15V18h2.308V7.891h-2.308v5.891c0 .5-.087.936-.262 1.308a1.942 1.942 0 0 1-.773.862c-.34.203-.756.304-1.248.304-.695 0-1.198-.197-1.51-.593-.312-.395-.468-.981-.468-1.759V7.891h-2.307v6.54c0 .797.13 1.478.389 2.042.26.564.646.993 1.16 1.287.513.295 1.147.442 1.902.442ZM48.98 18.17c.715 0 1.337-.155 1.867-.466a3.06 3.06 0 0 0 1.211-1.299h.15V18h2.308V3.996h-2.308V9.51h-.15a2.995 2.995 0 0 0-1.215-1.308c-.546-.32-1.167-.481-1.863-.481-.854 0-1.591.21-2.212.633-.62.421-1.1 1.022-1.437 1.801-.337.78-.505 1.707-.505 2.781v.018c0 1.067.17 1.991.51 2.773.339.781.82 1.384 1.444 1.808.623.423 1.357.635 2.2.635Zm.719-1.946c-.521 0-.97-.13-1.348-.393-.378-.262-.668-.638-.87-1.127-.204-.49-.305-1.073-.305-1.75v-.018c0-.679.101-1.262.304-1.75.203-.487.494-.862.872-1.125s.827-.394 1.347-.394.969.132 1.349.396c.38.265.672.64.88 1.128.206.488.31 1.07.31 1.748v.018c0 .672-.103 1.253-.31 1.742-.205.49-.497.867-.877 1.13-.38.264-.831.395-1.352.395Z"></path><g><path d="M6.206 22.303H3.861v-1.036h-.742v1.036H.774V27.7h.728v-.406h3.976v.406h.728v-5.397Zm-4.704 4.284v-1.554h1.617v1.554H1.502Zm2.359 0v-1.554h1.617v1.554H3.861Zm-2.359-2.226v-1.365h1.617v1.365H1.502Zm2.359-1.365h1.617v1.365H3.861v-1.365ZM7.865 21.589v.707h5.04v-.707h-5.04Zm-.679 1.925v.728h2.226c-.672 1.351-1.218 2.177-1.638 2.485a.853.853 0 0 1-.175.077l.189.742a68.23 68.23 0 0 0 4.557-.469c.126.238.238.469.343.707l.658-.462c-.35-.693-.84-1.512-1.47-2.45l-.588.364c.252.399.483.791.7 1.176a47.161 47.161 0 0 1-3.304.35c.448-.518.959-1.358 1.54-2.52h3.311v-.728H7.186ZM16.503 21.253v5.523h-2.429v.714h6.293v-.714h-3.108v-2.737h2.59v-.707h-2.59v-2.079zM20.927 23.507v.616h6.286v-.616h-2.779v-.294h2.037v-1.526h-2.037v-.413h-.728v.413h-2.023v1.526h2.023v.294h-2.779Zm4.844-.854h-1.337v-.406h1.337v.406Zm-2.065 0h-1.323v-.406h1.323v.406Zm2.695 1.743h-4.592v2.191h.707v-1.561h3.171v1.477h.714v-2.107Zm-2.611.875c-.049.637-.238 1.085-.56 1.337-.364.266-1.127.42-2.275.462l.294.665c1.386-.105 2.247-.336 2.597-.693.336-.273.56-.84.658-1.701l-.714-.07Zm.854 1.127-.371.553c.868.203 1.708.483 2.52.847l.392-.616a17.271 17.271 0 0 0-2.541-.784ZM28.298 22.947a8.19 8.19 0 0 1-.511 2.016l.658.224a9.797 9.797 0 0 0 .476-2.072l-.623-.168Zm2.877-1.435v5.985h.7v-3.906c.21.427.399.91.574 1.449l.588-.301c-.21-.623-.455-1.19-.735-1.708l-.427.196v-1.715h-.7Zm1.932-.224v6.447h.693v-6.447h-.693Zm-2.751 1.806-.455.203v-1.953h-.693v2.163c-.014 1.722-.399 2.975-1.155 3.759l.546.483c.84-.882 1.274-2.268 1.302-4.158.224.448.427.959.609 1.526l.588-.301a11.478 11.478 0 0 0-.742-1.722ZM35.27 21.302l-.511.483c.504.406.889.784 1.162 1.134l.525-.518a9.032 9.032 0 0 0-1.176-1.099Zm3.983 6.314h1.603l.182-.721c-.196.014-.469.028-.826.042-.364 0-.714.007-1.064.007-.532 0-1.001-.007-1.4-.014-.406-.014-.707-.07-.91-.175a1.812 1.812 0 0 1-.476-.413l-.07-.07v-2.667h-1.603v.672h.924v1.918c-.28.154-.588.511-.938 1.071l.539.504c.35-.63.588-.945.721-.945.084 0 .168.056.259.175.203.238.441.399.721.483.294.07.658.112 1.106.119.441.007.854.014 1.232.014Zm-2.121-6.041v.672h3.304v-.672h-3.304Zm-.448 1.575v.693h1.393c-.518 1.218-.917 1.869-1.197 1.953l.182.637c1.211-.126 2.191-.287 2.947-.483.07.189.133.385.203.595l.651-.161a12.805 12.805 0 0 0-.966-2.198l-.595.196c.161.301.315.616.455.945-.518.133-1.141.245-1.876.343.308-.448.616-1.057.924-1.827h2.142v-.693h-4.263ZM42.823 23.78v1.533h3.696V23.78h-3.696Zm3.024.994h-2.352v-.448h2.352v.448Zm1.323.868h-4.977v2.093h.714v-.259h3.556v.259h.707v-2.093Zm-4.263 1.218v-.616h3.556v.616h-3.556Zm-1.295-5.194v.637h1.491v.336h.728v-.336h1.638v.336h.728v-.336h1.491v-.637h-1.491v-.406h-.728v.406h-1.638v-.406h-.728v.406h-1.491Zm5.957 1.155h-5.838v1.47h.7v-.854h4.438v.819h.7v-1.435Z"></path></g></g></svg>
